<svg width="564" height="544" viewBox="0 0 564 544" fill="none" xmlns="http://www.w3.org/2000/svg">
<path d="M481.111 343.155C441.623 411.55 354.166 434.985 285.77 395.496C217.374 356.008 193.94 268.55 233.428 200.155C272.917 131.759 360.374 108.325 428.77 147.813C497.166 187.301 520.6 274.759 481.111 343.155Z" stroke="#26B86C" stroke-opacity="0.14" stroke-width="16"/>
<path d="M129.77 404.156C202.949 446.406 296.522 421.333 338.772 348.155C381.022 274.976 355.949 181.403 282.77 139.153C209.591 96.9029 116.018 121.976 73.7679 195.155C31.5182 268.333 56.5911 361.907 129.77 404.156Z" stroke="#26B86C" stroke-width="4"/>
<path d="M280.471 329.98C280.875 330.13 281.27 330.213 281.654 330.228C282.043 330.246 282.419 330.195 282.783 330.075C283.148 329.963 283.496 329.783 283.829 329.533C284.157 329.289 284.463 328.974 284.746 328.59C285.276 327.872 285.563 327.11 285.607 326.302C285.649 325.5 285.44 324.696 284.981 323.892C284.527 323.091 283.81 322.33 282.832 321.608C281.853 320.887 280.911 320.422 280.006 320.213C279.101 320.004 278.267 320.039 277.505 320.317C276.747 320.598 276.095 321.109 275.548 321.85C275.053 322.522 274.748 323.184 274.635 323.835C274.524 324.493 274.595 325.11 274.848 325.686C275.098 326.266 275.523 326.776 276.122 327.218L275.588 327.756L278.258 324.134L280.495 325.783L276.16 331.662L274.39 330.357C273.155 329.446 272.287 328.403 271.784 327.228C271.286 326.056 271.134 324.835 271.328 323.566C271.527 322.301 272.061 321.079 272.931 319.899C273.902 318.582 275.046 317.639 276.362 317.07C277.682 316.505 279.085 316.34 280.572 316.574C282.059 316.817 283.543 317.484 285.025 318.577C286.164 319.416 287.057 320.33 287.706 321.316C288.356 322.311 288.772 323.337 288.952 324.395C289.132 325.453 289.091 326.499 288.829 327.534C288.567 328.569 288.094 329.551 287.409 330.479C286.822 331.275 286.159 331.93 285.42 332.444C284.686 332.961 283.913 333.33 283.101 333.55C282.286 333.775 281.463 333.843 280.633 333.753C279.807 333.666 279.011 333.415 278.245 332.998L280.471 329.98Z" fill="#26B86C"/>
<path d="M265.999 329.072L277.486 342.214L268.63 349.954L266.628 347.663L272.705 342.352L269.968 339.22L264.346 344.133L262.344 341.843L267.965 336.929L265.222 333.791L259.12 339.125L257.118 336.834L265.999 329.072Z" fill="#26B86C"/>
<path d="M261.241 351.947L262.736 354.597L250.251 361.64L248.756 358.99L253.41 356.364L246.329 343.812L249.506 342.02L256.587 354.572L261.241 351.947Z" fill="#26B86C"/>
<path d="M228.243 351.398L232.119 350.613L229.681 368.916L225.02 369.861L215.655 353.95L219.531 353.164L226.491 365.493L226.625 365.466L228.243 351.398ZM229.848 358.073L220.694 359.929L220.121 357.106L229.276 355.25L229.848 358.073Z" fill="#26B86C"/>
<path d="M204.491 354.516L202.536 371.861L195.693 371.09C194.377 370.941 193.285 370.564 192.415 369.957C191.545 369.356 190.918 368.584 190.532 367.643C190.14 366.707 190.009 365.663 190.139 364.511C190.269 363.359 190.632 362.371 191.228 361.546C191.824 360.722 192.621 360.117 193.619 359.732C194.612 359.346 195.775 359.229 197.107 359.379L201.469 359.871L201.137 362.809L197.369 362.384C196.663 362.305 196.068 362.361 195.583 362.552C195.092 362.748 194.709 363.051 194.434 363.46C194.153 363.875 193.98 364.367 193.916 364.937C193.851 365.513 193.91 366.029 194.093 366.484C194.27 366.944 194.577 367.319 195.013 367.608C195.449 367.903 196.022 368.091 196.733 368.171L199.206 368.45L200.824 354.103L204.491 354.516Z" fill="#26B86C"/>
<path d="M187.314 352.351L181.763 368.9L175.234 366.709C173.984 366.29 172.993 365.709 172.259 364.965C171.519 364.226 171.053 363.371 170.863 362.402C170.665 361.437 170.75 360.408 171.117 359.314C171.485 358.215 172.039 357.349 172.779 356.717C173.517 356.089 174.406 355.716 175.447 355.598C176.482 355.478 177.635 355.631 178.906 356.057L183.278 357.524L182.335 360.336L178.529 359.059C177.861 358.835 177.275 358.74 176.772 358.775C176.269 358.81 175.848 358.975 175.51 359.269C175.166 359.561 174.903 359.979 174.72 360.523C174.536 361.073 174.491 361.573 174.585 362.024C174.674 362.473 174.91 362.87 175.292 363.214C175.667 363.562 176.191 363.848 176.864 364.074L179.224 364.866L183.815 351.178L187.314 352.351ZM175.851 356.884L174.265 347.974L178.127 349.269L179.625 358.15L175.851 356.884Z" fill="#26B86C"/>
<path d="M152.457 345.657C153.459 344.039 154.619 342.852 155.935 342.097C157.247 341.339 158.615 340.986 160.039 341.039C161.455 341.094 162.817 341.527 164.127 342.338C165.445 343.154 166.443 344.187 167.121 345.435C167.798 346.683 168.089 348.063 167.995 349.575C167.901 351.087 167.354 352.65 166.355 354.264C165.353 355.882 164.196 357.07 162.884 357.828C161.572 358.587 160.209 358.938 158.792 358.883C157.373 358.833 156.004 358.4 154.686 357.583C153.376 356.772 152.383 355.743 151.706 354.495C151.021 353.248 150.725 351.869 150.82 350.357C150.909 348.842 151.455 347.275 152.457 345.657ZM155.638 347.627C154.989 348.675 154.599 349.657 154.467 350.571C154.33 351.482 154.429 352.298 154.764 353.02C155.099 353.742 155.646 354.338 156.404 354.808C157.163 355.278 157.939 355.501 158.735 355.479C159.53 355.457 160.308 355.184 161.068 354.659C161.823 354.13 162.525 353.342 163.174 352.294C163.823 351.246 164.216 350.266 164.352 349.355C164.484 348.44 164.383 347.622 164.048 346.9C163.713 346.178 163.166 345.583 162.408 345.113C161.65 344.643 160.873 344.419 160.077 344.441C159.282 344.463 158.506 344.738 157.752 345.267C156.992 345.792 156.287 346.579 155.638 347.627Z" fill="#26B86C"/>
<path d="M153.624 335.685L141.34 348.086L136.448 343.24C135.507 342.308 134.884 341.335 134.578 340.32C134.268 339.309 134.253 338.314 134.534 337.337C134.806 336.359 135.35 335.459 136.166 334.635C136.982 333.812 137.879 333.261 138.858 332.983C139.837 332.705 140.838 332.725 141.86 333.041C142.877 333.354 143.863 333.982 144.815 334.925L147.934 338.014L145.853 340.115L143.158 337.446C142.653 336.947 142.152 336.622 141.653 336.471C141.146 336.321 140.658 336.321 140.188 336.472C139.711 336.623 139.27 336.902 138.867 337.31C138.459 337.722 138.186 338.163 138.047 338.634C137.901 339.105 137.909 339.589 138.072 340.086C138.231 340.588 138.565 341.09 139.074 341.594L140.842 343.345L151.002 333.088L153.624 335.685Z" fill="#26B86C"/>
<path d="M125.473 314.616C127.085 313.603 128.647 313.046 130.162 312.945C131.673 312.84 133.057 313.124 134.313 313.798C135.561 314.469 136.595 315.456 137.415 316.76C138.241 318.073 138.684 319.438 138.744 320.857C138.804 322.276 138.46 323.644 137.711 324.961C136.962 326.278 135.785 327.442 134.178 328.452C132.567 329.466 131.006 330.025 129.495 330.13C127.983 330.235 126.604 329.952 125.355 329.281C124.103 328.612 123.063 327.622 122.237 326.309C121.417 325.005 120.977 323.644 120.917 322.226C120.849 320.805 121.189 319.436 121.938 318.119C122.684 316.798 123.862 315.63 125.473 314.616ZM127.466 317.783C126.422 318.44 125.641 319.15 125.121 319.913C124.598 320.672 124.328 321.449 124.312 322.244C124.295 323.04 124.525 323.815 125 324.571C125.475 325.326 126.075 325.868 126.799 326.198C127.523 326.527 128.342 326.623 129.255 326.485C130.165 326.342 131.142 325.942 132.186 325.285C133.23 324.629 134.013 323.921 134.536 323.163C135.056 322.399 135.324 321.62 135.34 320.824C135.356 320.028 135.127 319.253 134.652 318.498C134.177 317.743 133.577 317.201 132.853 316.871C132.129 316.541 131.311 316.448 130.401 316.591C129.488 316.729 128.509 317.126 127.466 317.783Z" fill="#26B86C"/>
<path d="M116.071 301.393C115.445 301.686 115.038 302.139 114.851 302.753C114.663 303.367 114.716 304.092 115.01 304.928C115.21 305.496 115.459 305.948 115.757 306.283C116.05 306.619 116.373 306.843 116.725 306.954C117.076 307.06 117.428 307.05 117.782 306.926C118.08 306.833 118.316 306.681 118.488 306.47C118.659 306.253 118.782 305.996 118.858 305.698C118.929 305.402 118.968 305.075 118.974 304.718C118.976 304.362 118.954 303.99 118.908 303.603L118.741 301.999C118.65 301.224 118.632 300.49 118.689 299.795C118.746 299.1 118.893 298.465 119.129 297.887C119.366 297.31 119.707 296.808 120.153 296.38C120.597 295.947 121.161 295.607 121.846 295.36C122.855 295.011 123.819 294.962 124.738 295.211C125.65 295.456 126.477 295.985 127.22 296.795C127.955 297.603 128.559 298.676 129.03 300.016C129.497 301.346 129.701 302.575 129.64 303.705C129.578 304.829 129.244 305.807 128.64 306.64C128.028 307.47 127.134 308.106 125.959 308.549L124.775 305.181C125.314 304.949 125.719 304.629 125.991 304.22C126.255 303.808 126.399 303.333 126.42 302.795C126.435 302.254 126.336 301.683 126.125 301.083C125.918 300.493 125.652 300.012 125.328 299.638C125.002 299.259 124.644 299.002 124.253 298.868C123.863 298.735 123.47 298.737 123.073 298.877C122.703 299.007 122.431 299.226 122.256 299.534C122.08 299.837 121.977 300.229 121.947 300.709C121.915 301.184 121.932 301.747 121.999 302.399L122.179 304.35C122.329 305.857 122.187 307.139 121.751 308.195C121.316 309.252 120.489 309.991 119.27 310.414C118.275 310.77 117.311 310.811 116.377 310.537C115.442 310.257 114.599 309.719 113.849 308.923C113.099 308.127 112.513 307.128 112.091 305.928C111.661 304.705 111.495 303.565 111.593 302.507C111.689 301.443 112.02 300.526 112.586 299.755C113.152 298.984 113.922 298.418 114.898 298.057L116.071 301.393Z" fill="#26B86C"/>
<path d="M124.96 286.871L125.419 290.799L107.384 286.838L106.832 282.115L123.471 274.114L123.929 278.042L111.062 283.946L111.077 284.082L124.96 286.871ZM118.175 287.912L117.091 278.634L119.953 278.3L121.036 287.578L118.175 287.912Z" fill="#26B86C"/>
<path d="M123.467 270.582L106.089 268.95L106.434 265.276L120.783 266.624L121.482 259.173L124.511 259.458L123.467 270.582Z" fill="#26B86C"/>
<path d="M121.772 237.385L124.474 238.384L121.712 245.85L119.01 244.851L121.772 237.385Z" fill="#26B86C"/>
<path d="M132.488 212.799C132.085 212.646 131.691 212.561 131.307 212.543C130.918 212.521 130.542 212.569 130.177 212.686C129.811 212.796 129.461 212.973 129.127 213.22C128.797 213.462 128.488 213.774 128.202 214.156C127.667 214.87 127.374 215.631 127.324 216.437C127.276 217.24 127.479 218.045 127.931 218.853C128.379 219.657 129.09 220.424 130.063 221.153C131.036 221.882 131.974 222.354 132.878 222.57C133.781 222.785 134.615 222.757 135.38 222.485C136.14 222.21 136.796 221.704 137.348 220.967C137.849 220.299 138.158 219.64 138.276 218.99C138.393 218.332 138.327 217.714 138.078 217.137C137.832 216.555 137.411 216.041 136.816 215.595L137.354 215.061L134.656 218.662L132.432 216.996L136.812 211.151L138.572 212.47C139.8 213.39 140.66 214.439 141.154 215.618C141.643 216.794 141.786 218.016 141.582 219.283C141.373 220.547 140.829 221.765 139.95 222.938C138.969 224.248 137.818 225.182 136.498 225.74C135.173 226.295 133.769 226.45 132.285 226.204C130.799 225.95 129.32 225.271 127.847 224.167C126.715 223.319 125.828 222.399 125.186 221.407C124.544 220.407 124.137 219.378 123.965 218.319C123.793 217.26 123.842 216.214 124.112 215.181C124.382 214.148 124.863 213.17 125.554 212.247C126.147 211.456 126.815 210.806 127.558 210.298C128.296 209.786 129.072 209.423 129.886 209.209C130.703 208.991 131.526 208.929 132.356 209.026C133.181 209.118 133.975 209.376 134.737 209.799L132.488 212.799Z" fill="#26B86C"/>
<path d="M146.905 213.85L135.518 200.622L144.431 192.948L146.416 195.254L140.299 200.52L143.013 203.672L148.671 198.801L150.656 201.107L144.998 205.978L147.717 209.136L153.86 203.848L155.845 206.154L146.905 213.85Z" fill="#26B86C"/>
<path d="M151.793 191.019L150.317 188.358L162.854 181.407L164.33 184.068L159.656 186.659L166.645 199.264L163.454 201.032L156.466 188.428L151.793 191.019Z" fill="#26B86C"/>
<path d="M184.315 191.891L180.437 192.663L182.941 174.368L187.605 173.44L196.912 189.385L193.033 190.157L186.118 177.803L185.984 177.829L184.315 191.891ZM182.734 185.21L191.895 183.388L192.457 186.213L183.296 188.036L182.734 185.21Z" fill="#26B86C"/>
<path d="M208.386 188.779L210.471 171.449L217.308 172.272C218.622 172.43 219.712 172.815 220.577 173.429C221.442 174.037 222.064 174.812 222.443 175.756C222.828 176.695 222.951 177.74 222.812 178.891C222.674 180.042 222.304 181.028 221.701 181.848C221.099 182.668 220.297 183.267 219.296 183.644C218.301 184.023 217.137 184.132 215.806 183.971L211.448 183.447L211.801 180.511L215.567 180.964C216.272 181.049 216.868 180.997 217.354 180.81C217.846 180.617 218.231 180.317 218.509 179.91C218.794 179.498 218.97 179.007 219.038 178.437C219.108 177.862 219.052 177.346 218.873 176.889C218.699 176.428 218.396 176.051 217.962 175.758C217.528 175.46 216.956 175.268 216.245 175.183L213.774 174.885L212.05 189.22L208.386 188.779Z" fill="#26B86C"/>
<path d="M225.052 190.875L230.666 174.349L237.187 176.564C238.435 176.988 239.424 177.573 240.155 178.319C240.893 179.062 241.355 179.918 241.542 180.887C241.735 181.853 241.647 182.882 241.276 183.975C240.903 185.072 240.346 185.936 239.604 186.566C238.863 187.19 237.973 187.56 236.932 187.674C235.896 187.791 234.743 187.633 233.474 187.202L229.108 185.719L230.062 182.91L233.863 184.202C234.53 184.428 235.115 184.525 235.618 184.492C236.122 184.459 236.543 184.296 236.883 184.003C237.227 183.712 237.492 183.295 237.677 182.752C237.863 182.203 237.91 181.703 237.817 181.251C237.73 180.802 237.496 180.404 237.115 180.059C236.742 179.71 236.219 179.421 235.546 179.193L233.19 178.392L228.546 192.063L225.052 190.875ZM236.532 186.386L238.085 195.303L234.227 193.993L232.763 185.106L236.532 186.386Z" fill="#26B86C"/>
<path d="M260.206 197.769C259.198 199.384 258.034 200.566 256.715 201.316C255.4 202.069 254.031 202.416 252.607 202.358C251.191 202.297 249.83 201.859 248.524 201.044C247.209 200.222 246.215 199.186 245.542 197.935C244.87 196.684 244.584 195.303 244.684 193.791C244.784 192.279 245.337 190.719 246.342 189.109C247.35 187.495 248.512 186.311 249.826 185.558C251.141 184.805 252.506 184.458 253.922 184.519C255.341 184.574 256.708 185.013 258.024 185.835C259.33 186.651 260.319 187.684 260.992 188.935C261.672 190.183 261.962 191.564 261.862 193.076C261.767 194.59 261.215 196.155 260.206 197.769ZM257.033 195.787C257.686 194.741 258.08 193.762 258.216 192.848C258.356 191.937 258.26 191.12 257.928 190.397C257.596 189.674 257.051 189.076 256.295 188.603C255.538 188.131 254.762 187.904 253.967 187.923C253.171 187.942 252.392 188.212 251.631 188.735C250.874 189.26 250.169 190.046 249.515 191.091C248.862 192.137 248.466 193.115 248.325 194.026C248.19 194.94 248.289 195.758 248.621 196.481C248.953 197.205 249.497 197.802 250.254 198.275C251.01 198.748 251.786 198.974 252.582 198.956C253.377 198.937 254.154 198.665 254.911 198.139C255.672 197.617 256.38 196.833 257.033 195.787Z" fill="#26B86C"/>
<path d="M258.959 207.636L271.289 195.282L276.163 200.147C277.1 201.082 277.72 202.057 278.022 203.074C278.328 204.086 278.339 205.08 278.055 206.057C277.779 207.033 277.231 207.932 276.412 208.752C275.594 209.573 274.694 210.12 273.714 210.394C272.734 210.668 271.734 210.645 270.713 210.324C269.696 210.008 268.713 209.376 267.764 208.429L264.657 205.328L266.747 203.235L269.431 205.914C269.934 206.416 270.434 206.743 270.933 206.895C271.439 207.047 271.927 207.049 272.397 206.9C272.875 206.751 273.317 206.473 273.722 206.067C274.131 205.657 274.406 205.217 274.546 204.746C274.695 204.276 274.688 203.792 274.527 203.294C274.37 202.792 274.038 202.288 273.531 201.782L271.77 200.024L261.571 210.243L258.959 207.636Z" fill="#26B86C"/>
<path d="M287.111 228.832C285.497 229.84 283.932 230.391 282.417 230.485C280.905 230.585 279.523 230.296 278.269 229.618C277.024 228.942 275.993 227.951 275.178 226.644C274.357 225.328 273.919 223.961 273.864 222.542C273.809 221.123 274.158 219.756 274.912 218.442C275.666 217.128 276.848 215.969 278.458 214.964C280.073 213.956 281.636 213.403 283.148 213.303C284.659 213.204 286.038 213.492 287.284 214.168C288.534 214.841 289.57 215.836 290.391 217.152C291.206 218.458 291.641 219.82 291.696 221.239C291.759 222.66 291.414 224.028 290.66 225.342C289.909 226.661 288.726 227.824 287.111 228.832ZM285.131 225.658C286.177 225.005 286.961 224.298 287.484 223.537C288.01 222.78 288.282 222.004 288.301 221.208C288.321 220.413 288.094 219.636 287.622 218.88C287.15 218.123 286.552 217.578 285.829 217.246C285.106 216.913 284.287 216.815 283.374 216.95C282.463 217.089 281.484 217.485 280.438 218.138C279.392 218.791 278.607 219.496 278.081 220.252C277.558 221.014 277.287 221.792 277.268 222.588C277.249 223.383 277.475 224.16 277.947 224.916C278.42 225.673 279.017 226.218 279.74 226.55C280.464 226.882 281.28 226.979 282.191 226.839C283.105 226.704 284.085 226.311 285.131 225.658Z" fill="#26B86C"/>
<path d="M296.574 242.287C297.203 241.999 297.613 241.548 297.805 240.936C297.997 240.323 297.949 239.598 297.661 238.759C297.465 238.19 297.219 237.736 296.923 237.4C296.633 237.061 296.312 236.835 295.96 236.721C295.611 236.613 295.259 236.62 294.904 236.741C294.605 236.832 294.368 236.983 294.194 237.193C294.022 237.408 293.896 237.664 293.818 237.961C293.746 238.257 293.704 238.583 293.695 238.941C293.691 239.297 293.711 239.669 293.754 240.056L293.909 241.661C293.995 242.437 294.007 243.171 293.945 243.866C293.883 244.56 293.731 245.194 293.49 245.77C293.25 246.345 292.905 246.845 292.456 247.27C292.009 247.7 291.442 248.035 290.756 248.277C289.744 248.619 288.779 248.662 287.863 248.406C286.953 248.154 286.13 247.619 285.393 246.803C284.663 245.99 284.067 244.912 283.606 243.569C283.148 242.236 282.954 241.005 283.022 239.876C283.093 238.753 283.434 237.777 284.044 236.948C284.662 236.123 285.56 235.493 286.738 235.058L287.898 238.436C287.358 238.664 286.95 238.981 286.675 239.388C286.408 239.798 286.261 240.272 286.236 240.809C286.217 241.35 286.311 241.922 286.518 242.524C286.721 243.115 286.983 243.598 287.305 243.975C287.628 244.356 287.984 244.615 288.374 244.752C288.763 244.888 289.157 244.888 289.554 244.752C289.925 244.625 290.199 244.407 290.376 244.1C290.555 243.799 290.661 243.408 290.694 242.928C290.729 242.453 290.716 241.89 290.654 241.238L290.488 239.286C290.349 237.777 290.501 236.497 290.944 235.443C291.387 234.39 292.219 233.656 293.441 233.243C294.439 232.894 295.403 232.86 296.335 233.141C297.268 233.427 298.107 233.971 298.851 234.773C299.595 235.575 300.174 236.578 300.587 237.781C301.008 239.006 301.166 240.148 301.06 241.205C300.957 242.268 300.619 243.183 300.048 243.95C299.476 244.717 298.701 245.278 297.723 245.632L296.574 242.287Z" fill="#26B86C"/>
<path d="M287.603 256.538L287.159 252.608L305.18 256.634L305.714 261.36L289.046 269.3L288.602 265.371L301.492 259.513L301.476 259.378L287.603 256.538ZM294.393 255.521L295.442 264.803L292.58 265.127L291.53 255.845L294.393 255.521Z" fill="#26B86C"/>
<path d="M289.073 272.933L306.445 274.629L306.086 278.302L291.742 276.901L291.015 284.349L287.987 284.053L289.073 272.933Z" fill="#26B86C"/>
<path d="M290.52 306.513L287.826 305.493L290.645 298.048L293.339 299.068L290.52 306.513Z" fill="#26B86C"/>
<circle cx="206.27" cy="271.655" r="35" transform="rotate(30 206.27 271.655)" fill="#26B86C"/>
<g clip-path="url(#clip0_244_682)">
<path d="M195.803 274.85L195.12 272.3L212.605 267.615L202.675 261.881L204.008 259.572L217.865 267.572L209.865 281.428L207.555 280.095L213.289 270.165L195.803 274.85Z" fill="black"/>
</g>
<defs>
<clipPath id="clip0_244_682">
<rect width="32" height="32" fill="white" transform="translate(200.414 249.798) rotate(30)"/>
</clipPath>
</defs>
</svg>
